HIERARCHY
ROOT Hips
{
	OFFSET 0.000000 0.000000 0.000000 
	CHANNELS 6 Xposition Yposition Zposition Zrotation Yrotation Xrotation
	JOINT LeftUpLeg
	{
		OFFSET 1.363060 -1.794630 0.839290 
		CHANNELS 3 Zrotation Yrotation Xrotation
		JOINT LeftLeg
		{
			OFFSET 2.448110 -6.726130 0.000000 
			CHANNELS 3 Zrotation Yrotation Xrotation
			JOINT LeftFoot
			{
				OFFSET 2.562200 -7.039590 0.000000 
				CHANNELS 3 Zrotation Yrotation Xrotation
				JOINT LeftToeBase
				{
					OFFSET 0.157640 -0.433110 2.322550 
					CHANNELS 3 Zrotation Yrotation Xrotation
					End Site
					{
						OFFSET 0.000000 0.000000 0.000000 
					}
				}
			}
		}
	}
	JOINT RightUpLeg
	{
		OFFSET -1.305520 -1.794630 0.839290 
		CHANNELS 3 Zrotation Yrotation Xrotation
		JOINT RightLeg
		{
			OFFSET -2.542530 -6.985550 0.000000 
			CHANNELS 3 Zrotation Yrotation Xrotation
			JOINT RightFoot
			{
				OFFSET -2.568260 -7.056230 0.000000 
				CHANNELS 3 Zrotation Yrotation Xrotation
				JOINT RightToeBase
				{
					OFFSET -0.164730 -0.452590 2.363150 
					CHANNELS 3 Zrotation Yrotation Xrotation
					End Site
					{
						OFFSET 0.000000 0.000000 0.000000 
					}
				}
			}
		}
	}
	JOINT Spine
	{
		OFFSET 0.028270 2.035590 -0.193380 
		CHANNELS 3 Zrotation Yrotation Xrotation
		JOINT Spine1
		{
			OFFSET 0.056720 2.048850 -0.042750 
			CHANNELS 3 Zrotation Yrotation Xrotation
			JOINT Neck1
			{
				OFFSET -0.054170 1.746240 0.172020 
				CHANNELS 3 Zrotation Yrotation Xrotation
				JOINT Head
				{
					OFFSET 0.104070 1.761360 -0.123970 
					CHANNELS 3 Zrotation Yrotation Xrotation
					End Site
					{
						OFFSET 0.000000 0.000000 0.000000 
					}
				}
			}
			JOINT LeftArm
			{
				OFFSET 3.362410 1.200890 -0.311210 
				CHANNELS 3 Zrotation Yrotation Xrotation
				JOINT LeftForeArm
				{
					OFFSET 4.983000 -0.000000 -0.000000 
					CHANNELS 3 Zrotation Yrotation Xrotation
					JOINT LeftHand
					{
						OFFSET 3.483560 -0.000000 -0.000000 
						CHANNELS 3 Zrotation Yrotation Xrotation
						JOINT LeftHandIndex1
						{
							OFFSET 0.715260 -0.000000 -0.000000 
							CHANNELS 3 Zrotation Yrotation Xrotation
							End Site
							{
								OFFSET 0.000000 0.000000 0.000000 
							}
						}
					}
				}
			}
			JOINT RightArm
			{
				OFFSET -3.136600 1.374050 -0.404650 
				CHANNELS 3 Zrotation Yrotation Xrotation
				JOINT RightForeArm
				{
					OFFSET -5.241900 -0.000000 -0.000000 
					CHANNELS 3 Zrotation Yrotation Xrotation
					JOINT RightHand
					{
						OFFSET -3.444170 -0.000000 -0.000000 
						CHANNELS 3 Zrotation Yrotation Xrotation
						JOINT RightHandIndex1
						{
							OFFSET -0.622530 -0.000000 -0.000000 
							CHANNELS 3 Zrotation Yrotation Xrotation
							End Site
							{
								OFFSET 0.000000 0.000000 0.000000 
							}
						}
					}
				}
			}
		}
	}
}
MOTION
Frames: 16
Frame Time: 0.041667
9.866778 17.884453 49.737771 -175.948732 0.560533 179.098243 -14.068712 -23.050605 -3.497747 -2.173598 8.554100 24.349138 -5.731442 17.174058 -7.023562 2.122400 -9.116500 -26.160400 24.916851 17.314498 -0.595347 2.567118 -6.728912 21.425254 5.597406 -20.255551 -11.795807 -0.078000 1.802100 -4.959000 4.760744 -0.559963 7.667723 -4.420085 -0.559537 -11.108009 9.612556 -6.759159 32.413768 1.357100 -2.993000 11.334600 -90.856476 6.800082 27.572382 26.500433 -26.678181 -7.693873 1.522302 0.842223 13.224623 -7.125000 0.000000 0.000000 86.309380 -6.313622 43.925821 -19.687135 22.288784 -5.288857 1.217597 0.028443 15.043677 7.125000 0.000000 0.000000 
9.866191 17.885276 49.747049 -176.337494 0.656824 178.942026 -14.430172 -23.031886 -3.179952 -2.264218 8.416661 24.006051 -5.498374 16.637988 -7.097965 1.727500 -8.273800 -23.548900 24.570203 17.406649 -0.704304 2.469520 -6.899312 21.924873 5.496707 -19.946170 -11.909389 -0.081400 1.840100 -5.063900 4.193758 -0.385222 7.778980 -4.374595 -0.460956 -11.254201 9.553658 -6.924767 32.151580 1.291200 -3.074700 11.168400 -90.545527 6.762338 27.904033 26.601892 -26.798402 -7.751771 1.529250 0.829356 12.914750 -7.125000 0.000000 0.000000 86.511710 -6.241232 43.517591 -19.691034 22.299287 -5.275627 1.217200 0.027764 15.753420 7.125000 0.000000 0.000000 
9.865721 17.884453 49.751746 -176.674207 0.674151 178.773292 -14.808082 -23.082975 -2.837281 -2.335289 8.304110 23.699647 -5.525482 16.718956 -7.043567 1.673500 -8.150100 -23.170900 24.264338 17.490320 -0.729856 2.394279 -7.026670 22.304436 5.481597 -19.897261 -12.056824 -0.091200 1.948100 -5.362200 3.894727 -0.376068 7.782726 -4.237741 -0.443964 -11.426835 9.445178 -6.982526 32.932538 1.270300 -3.120000 11.530100 -90.490407 6.827582 27.860150 26.592375 -26.791608 -7.750332 1.522991 0.840363 12.918010 -7.125000 0.000000 0.000000 86.573063 -6.317625 43.500387 -19.726773 22.347394 -5.283640 1.214968 0.026620 15.966085 7.125000 0.000000 0.000000 
9.862668 17.882457 49.752451 -177.022716 0.707408 178.614399 -15.199040 -23.083563 -2.467280 -2.422877 8.165823 23.324064 -5.583372 16.876808 -7.060574 1.597600 -7.972100 -22.629400 23.946348 17.593353 -0.793144 2.303251 -7.187000 22.771372 5.476210 -19.891944 -12.276447 -0.101300 2.052600 -5.651200 3.607690 -0.372559 7.827260 -4.100029 -0.430163 -11.536682 9.113167 -7.008999 33.676123 1.146100 -3.158900 11.892600 -90.457353 6.850720 27.800744 26.534494 -26.733244 -7.725687 1.520075 0.854127 12.993238 -7.125000 0.000000 0.000000 86.578270 -6.355327 43.517849 -19.748145 22.374720 -5.281703 1.214435 0.024282 16.194502 7.125000 0.000000 0.000000 
9.857266 17.879991 49.759262 -177.409481 0.714739 178.492692 -15.624516 -23.078058 -2.186055 -2.493360 8.059820 23.032423 -5.614288 16.980380 -7.093024 1.609800 -8.001000 -22.717300 23.537414 17.595420 -0.920319 2.228868 -7.306111 23.120003 5.451034 -19.792128 -12.353930 -0.110000 2.138500 -5.888600 3.267259 -0.352999 7.847645 -3.998948 -0.403837 -11.676231 9.438653 -6.966594 33.852212 1.319200 -3.146000 11.938700 -90.357712 6.845989 27.932004 26.497153 -26.692779 -7.708010 1.504621 0.871582 13.026929 -7.125000 0.000000 0.000000 86.552340 -6.352310 43.561463 -19.796956 22.444444 -5.309833 1.211064 0.031982 16.234413 7.125000 0.000000 0.000000 
9.852686 17.876702 49.769480 -178.152117 0.694370 178.130344 -16.520850 -23.092636 -1.643152 -2.559847 7.969097 22.803958 -5.599430 17.025064 -7.202168 1.613300 -8.009400 -22.742700 22.801014 17.528679 -0.844349 2.143182 -7.391382 23.457813 5.418580 -19.626920 -12.436810 -0.109000 2.128500 -5.860900 2.714220 -0.376365 8.009173 -3.704861 -0.368976 -11.953242 9.240351 -6.969560 34.025529 1.231500 -3.161800 12.002600 -90.288538 6.867974 28.069564 26.490282 -26.689259 -7.708061 1.490043 0.884977 13.015679 -7.125000 0.000000 0.000000 86.551802 -6.343459 43.672816 -19.861399 22.553319 -5.360616 1.203382 0.044824 16.130449 7.125000 0.000000 0.000000 
9.848340 17.877524 49.766544 -178.062663 0.694869 178.135136 -16.410762 -23.094972 -1.544023 -2.599204 7.886695 22.571734 -5.658927 17.142142 -7.052814 1.768100 -8.365300 -23.829300 22.903087 17.529072 -0.926423 2.102572 -7.483008 23.715760 5.332296 -19.444359 -12.678983 -0.088400 1.917600 -5.278100 2.628292 -0.328877 8.023373 -3.825245 -0.365167 -11.909892 9.435561 -6.975182 33.972975 1.308100 -3.160400 11.937900 -90.237354 6.813628 27.990556 26.548109 -26.771210 -7.748998 1.517012 0.866223 12.604729 -7.125000 0.000000 0.000000 86.645570 -6.343018 43.820738 -19.829921 22.520171 -5.370080 1.200505 0.040150 16.437806 7.125000 0.000000 0.000000 
9.845874 17.876937 49.766896 -178.198544 0.730299 178.152048 -16.528907 -23.019915 -1.505423 -2.625505 7.835862 22.398058 -5.811414 17.510850 -6.819996 2.198200 -9.267300 -26.635000 22.742797 17.538386 -1.041947 2.071157 -7.544695 23.884892 5.335992 -19.472016 -12.840183 -0.093700 1.974100 -5.434000 2.433511 -0.308543 8.040919 -3.799312 -0.357284 -11.882811 9.202591 -7.069427 34.439610 1.198100 -3.211800 12.186400 -90.175320 6.783652 28.063279 26.462671 -26.666389 -7.696963 1.484934 0.896079 13.090884 -7.125000 0.000000 0.000000 86.702908 -6.353345 44.212469 -19.684633 22.349894 -5.347712 1.196801 0.013326 17.245196 7.125000 0.000000 0.000000 
9.843878 17.878816 49.770302 -178.291871 0.729110 178.144309 -16.620850 -22.935847 -1.538235 -2.625046 7.833759 22.373066 -5.873605 17.667434 -6.665463 2.384000 -9.623900 -27.767200 22.640743 17.513333 -1.075198 2.067956 -7.548898 23.894705 5.408927 -19.678573 -12.891443 -0.112400 2.162000 -5.953700 2.331190 -0.322402 8.126962 -3.753631 -0.358804 -11.848861 9.018580 -7.057990 34.771270 1.128800 -3.219900 12.366200 -90.102505 6.680874 27.990633 26.523158 -26.735573 -7.725404 1.505669 0.874895 12.680607 -7.125000 0.000000 0.000000 86.725706 -6.181492 44.056612 -19.662137 22.315061 -5.305602 1.205430 0.022165 16.714965 7.125000 0.000000 0.000000 
9.841881 17.879521 49.772768 -178.272285 0.743113 178.085038 -16.607603 -22.853213 -1.527585 -2.631164 7.818891 22.361645 -5.728956 17.311279 -6.700728 2.147800 -9.167500 -26.320600 22.671295 17.524560 -1.032906 2.060719 -7.552564 23.915097 5.379134 -19.579417 -12.801804 -0.091100 1.946900 -5.358900 2.384987 -0.326970 8.240280 -3.747953 -0.354691 -11.825196 9.174700 -6.973915 34.747726 1.226800 -3.194200 12.331600 -90.139303 6.730914 28.106159 26.574110 -26.778390 -7.745649 1.468495 0.895278 13.025879 -7.125000 0.000000 0.000000 86.644538 -6.160599 44.359795 -19.689817 22.357161 -5.338582 1.201073 0.020433 16.773890 7.125000 0.000000 0.000000 
9.838358 17.878229 49.771711 -178.259840 0.826738 178.085180 -16.608397 -22.862447 -1.491527 -2.640368 7.806469 22.340101 -5.676449 17.185935 -6.795493 2.096300 -9.063900 -25.995300 22.664961 17.564095 -1.055409 2.045580 -7.577751 23.983249 5.334127 -19.440631 -12.740778 -0.088000 1.912900 -5.264900 2.362341 -0.317147 8.183021 -3.785675 -0.357395 -11.856926 9.220416 -6.961630 34.919112 1.265200 -3.204600 12.398300 -90.155086 6.911641 28.074008 26.807538 -27.032930 -7.865890 1.486791 0.858427 12.419575 -7.125000 0.000000 0.000000 86.607743 -6.244945 44.708994 -19.741478 22.426005 -5.377430 1.195425 0.020044 16.890945 7.125000 0.000000 0.000000 
9.834600 17.880108 49.770772 -178.278741 0.856205 178.179113 -16.611031 -22.884404 -1.553790 -2.648689 7.797360 22.292790 -5.788194 17.458041 -6.802695 2.335400 -9.532300 -27.475100 22.587816 17.579043 -1.190756 2.037877 -7.602348 24.023782 5.346800 -19.470334 -12.734920 -0.107500 2.114100 -5.821100 2.394097 -0.325741 8.210678 -3.763315 -0.353919 -11.755920 9.417147 -6.879184 34.769618 1.366900 -3.165000 12.307200 -90.188892 6.904562 28.215839 26.759127 -26.954117 -7.821455 1.456470 0.873296 12.775055 -7.125000 0.000000 0.000000 86.533526 -6.194717 44.892532 -19.793342 22.486515 -5.397693 1.195480 0.020700 16.887159 7.125000 0.000000 0.000000 
9.827671 17.881165 49.790854 -178.431491 2.413138 178.416956 -16.741897 -22.348537 -1.848727 -2.678160 7.808434 22.296841 -6.071142 18.200944 -7.504490 2.179700 -9.230900 -26.520200 22.191310 17.994445 -1.719830 2.007596 -7.656004 24.018229 5.173109 -18.728068 -11.550816 -0.153700 2.526400 -6.963000 2.387586 0.330658 8.022240 -3.755246 -0.027281 -11.887667 9.271190 -6.798443 34.912467 1.316600 -3.135400 12.371500 -90.228574 6.817421 27.985734 26.826708 -27.035008 -7.852082 1.492187 0.834123 12.285985 -7.125000 0.000000 0.000000 86.488536 -6.130252 44.974224 -19.768228 22.459093 -5.392442 1.194012 0.021235 16.995983 7.125000 0.000000 0.000000 
9.824147 17.884219 49.788388 -178.443837 1.957357 178.497436 -16.735716 -22.518661 -1.876700 -2.675195 7.793693 22.234055 -6.052753 18.136140 -7.140432 2.186800 -9.244800 -26.564200 22.164928 17.913053 -1.798212 1.999722 -7.686268 24.094031 5.237337 -18.956870 -11.804369 -0.140400 2.414700 -6.653100 2.490356 0.104582 7.934555 -3.673258 -0.129835 -11.857647 9.231267 -6.701948 34.954397 1.324200 -3.112200 12.365000 -90.347103 6.916506 27.954453 26.784085 -26.979838 -7.830516 1.466001 0.859799 12.905858 -7.125000 0.000000 0.000000 86.403525 -6.138230 45.025879 -19.688355 22.358775 -5.361515 1.196922 0.015166 17.101745 7.125000 0.000000 0.000000 
9.823678 17.883631 49.792968 -178.482869 2.391797 178.481593 -16.797543 -22.357123 -1.865055 -2.687690 7.787519 22.245469 -5.990959 18.004087 -7.433120 1.886300 -8.625000 -24.629200 22.118959 18.129681 -1.816835 1.980322 -7.718529 24.155813 5.238263 -18.918807 -11.565615 -0.178500 2.721700 -7.505000 2.547860 0.291608 7.890319 -3.612673 -0.031047 -11.961922 8.963425 -6.707819 35.394584 1.223400 -3.142500 12.585400 -90.400888 6.974397 27.869614 26.855267 -27.058013 -7.866504 1.482470 0.837382 12.748345 -7.125000 0.000000 0.000000 86.412662 -6.124267 45.013915 -19.584120 22.229995 -5.310368 1.201049 0.006190 17.266227 7.125000 0.000000 0.000000 
9.817101 17.884219 49.792498 -178.466820 1.877959 178.352617 -16.814306 -22.559730 -1.733594 -2.684021 7.780868 22.257423 -5.776231 17.474538 -7.348927 1.693300 -8.195700 -23.309900 22.172685 17.903621 -1.679738 1.978122 -7.707749 24.193737 5.237265 -18.968022 -11.870294 -0.160100 2.577700 -7.105200 2.454337 0.064999 8.087661 -3.658059 -0.145811 -11.920709 9.121812 -6.651963 35.263971 1.300300 -3.110500 12.516800 -90.362416 6.894617 27.844420 26.909579 -27.124040 -7.892558 1.510851 0.805285 12.467726 -7.125000 0.000000 0.000000 86.429351 -5.948796 45.103223 -19.502171 22.130384 -5.275990 1.205279 0.004865 17.262998 7.125000 0.000000 0.000000 
